<svg xmlns="http://www.w3.org/2000/svg" xmlns:xlink="http://www.w3.org/1999/xlink" width="228.125" height="386.083" viewBox="0 0 60.358 102.151"><defs><radialGradient id="A" cx="1131.481" cy="230.646" r="378.487" gradientUnits="userSpaceOnUse"><stop offset="0" stop-color="#ffdf15"/><stop offset="1" stop-color="#ffe355" stop-opacity="0"/></radialGradient><path id="B" d="M1166.7 401.9l-87.9 6c-2 .1-3.5 1.9-3.4 3.9s1.9 3.5 3.9 3.4l87.9-6c2-.1 3.5-1.9 3.4-3.9s-1.9-3.6-3.9-3.4z"/></defs><g transform="matrix(.264583 0 0 .264583 -267.48745 -22.362064)"><radialGradient cx="1131.481" cy="230.646" r="378.487" gradientUnits="userSpaceOnUse"><stop offset="0" stop-color="#ffdf15"/><stop offset="1" stop-color="#ffe355" stop-opacity="0"/></radialGradient><g stroke-miterlimit="10" stroke-width="3"><path d="M1237.6 198.6c0-63.6-52.8-114.9-116.9-112.5-59.2 2.2-106.9 50.7-108.2 110-.5 23.9 6.4 46.1 18.6 64.5 0 0 22.9 34.6 28.3 61.9 3.7 18.5 2.8 32.9 6.7 44.2 2.9 8.5 10.9 14.1 19.9 14.1h78c9 0 17-5.7 19.9-14.1 3.9-11.3 3-25.6 6.7-44.2 5.5-27.3 28.3-61.9 28.3-61.9 11.8-17.8 18.7-39.1 18.7-62z" fill="url(#A)" stroke="#fffa76"/><path d="M1144.2 380.8s-8.2-153.4 13.7-184.4 34.6 10-32.8 10-54.6-41-32.8-10 13.7 184.4 13.7 184.4" fill="none" stroke="#fff"/></g><path d="M1041.7 251.6s-32.3-35.2-13.4-87.4c20.2-55.7 83.8-69.8 83.8-69.8s-105.6 48-70.4 157.2zm140 81.4s-5.8-40.4 27-70.1c0 0-20.5 28.7-27 70.1zm-111.2 17.8s-4.2 32.1 49.6 23.9c-.1 0-37.5 4.1-49.6-23.9zm121.9-231.4s39.6 33 35.1 83.8c0 0-3.6-48.7-35.1-83.8z" fill="#fff"/><g stroke-width="3" fill="none" stroke="#fff"><path stroke-miterlimit="10" d="M1156.8 380.8c-.2-12.2 4.5-79.6-21.2-81.4-6.4-.5-2.3-26.9-2.3-26.9s8.7-.5 6.8-7.3c-1.8-6.8-15.2-5.8-15.2-5.8s-13.3-1-15.2 5.8c-1.8 6.8 6.8 7.3 6.8 7.3s4.1 26.4-2.3 26.9c-25.7 1.8-21 69.2-21.2 81.4"/><circle cx="1125" cy="317.3" r="7.3"/><path d="M1112.1 261.4s5.4-58.2-2.6-67.2c-7.1-8-2.2 11.2-2.2 11.2m30 56s-5.4-58.2 2.6-67.2c7.1-8 2.2 11.2 2.2 11.2" stroke-miterlimit="10"/></g><g fill="#fff"><path d="M1115.9 279.7s-23.6-2.7-19.1 22.8c0 0-.7-16.4 19.1-22.8zm-36.6 124.2l87.9-6c2-.1 3.5-1.9 3.4-3.9s-1.9-3.5-3.9-3.4l-1.8.1v-10.1h-83.8v12.7h45.1l-47.4 3.2c-2 .1-3.5 1.9-3.4 3.9.2 2.2 1.9 3.7 3.9 3.5z"/><use xlink:href="#B"/><path d="M1166.7 413l-87.9 6c-2 .1-3.5 1.9-3.4 3.9s1.9 3.5 3.9 3.4l87.9-6c2-.1 3.5-1.9 3.4-3.9s-1.9-3.5-3.9-3.4z"/><use xlink:href="#B" y="22.3"/><path d="M1166.7 435.3l-87.9 6c-2 .1-3.5 1.9-3.4 3.9s1.9 3.5 3.9 3.4l3.5-.2 6.1 10h8.8l7.9 9.8c1.2 1.5 3.1 2.4 5 2.4h24.8c2 0 3.8-.9 5-2.4l7.9-9.8h8.8l7.8-12.7h-41.8l44.1-3c2-.1 3.5-1.9 3.4-3.9-.1-2.1-1.9-3.6-3.9-3.5z"/></g></g></svg>