<svg xmlns="http://www.w3.org/2000/svg" width="228.125" height="382.28" viewBox="0 0 60.358 101.145"><path stroke-miterlimit="10" d="M59.96 30.184c0-16.827-13.97-30.4-30.93-29.766C13.368 1 .747 13.833.403 29.523.27 35.846 2.097 41.72 5.325 46.588c0 0 6.06 9.155 7.488 16.378.98 4.895.74 8.705 1.773 11.695.767 2.25 2.884 3.73 5.265 3.73h20.637a5.57 5.57 0 0 0 5.265-3.731c1.032-3 .794-6.773 1.773-11.695 1.455-7.223 7.488-16.378 7.488-16.378 3.122-4.7 4.948-10.345 4.948-16.404z" fill="none" stroke="#fff" stroke-width=".794"/><path d="M41.916 86.646l-24.3 2.302c-.6.053-1.164-.397-1.244-1.005V87.9c-.053-.6.397-1.164 1.005-1.244l24.3-2.302c.6-.053 1.164.397 1.244 1.005v.053c.053.635-.397 1.2-1.005 1.244zm0 3.837l-24.3 2.302c-.6.053-1.164-.397-1.244-1.005v-.053c-.053-.6.397-1.164 1.005-1.244l24.3-2.302c.6-.053 1.164.397 1.244 1.005v.053c.08.635-.397 1.2-1.005 1.244zm.98-8.943c-.053-.6-.6-1.085-1.244-1.005H17.68c-.714 0-1.323.582-1.323 1.323v2.275c.053.6.6 1.085 1.244 1.005l24.3-2.302c.6-.053 1.085-.6 1.005-1.244zm.053 11.5a1.13 1.13 0 0 0-1.244-1.005l-24.3 2.302c-.6.053-1.085.6-1.005 1.244v.053c.053.6.6 1.085 1.244 1.005h23.97c.714 0 1.323-.582 1.323-1.323zm-10.028 8.095h-6.56a1.68 1.68 0 0 1-1.323-.635l-2.328-2.884h13.9l-2.33 2.874c-.344.397-.82.635-1.35.635z" fill="#fff"/><path stroke-miterlimit="10" d="M35.25 78.39s-2.17-40.587 3.625-48.79 9.155 6.032-8.678 6.032-14.446-14.208-8.678-6.032 3.625 48.79 3.625 48.79" fill="none" stroke="#fff" stroke-width=".794"/><path d="M8.13 44.207s-8.546-9.313-3.545-23.125C9.928 6.345 26.756 2.615 26.756 2.615s-27.94 12.7-18.627 41.592zm37.04 21.537s-1.535-10.7 7.144-18.547c0 0-5.424 7.594-7.144 18.547zm-29.42 4.7s-1.1 8.493 13.123 6.324c0 0-9.922 1.085-13.123-6.324zM48.028 9.23s10.477 8.73 9.287 22.172c-.026 0-.98-12.885-9.287-22.172z" fill="#fff"/></svg>